<svg width="217" height="42" viewBox="0 0 217 42" fill="none" xmlns="http://www.w3.org/2000/svg">
<g clip-path="url(#clip0_116_69)">
<path d="M28.8952 41.41L16.3544 25.0928C19.6814 25.0928 22.8721 23.7711 25.2247 21.4185C27.5772 19.066 28.8989 15.8752 28.8989 12.5482L28.8952 41.41Z" fill="url(#paint0_linear_116_69)"/>
<path d="M28.8952 12.5483C28.8952 9.22155 27.5742 6.03097 25.2225 3.67793C22.8709 1.32489 19.6811 0.0019708 16.3544 0H7.80549H0V41.41H28.8952L16.3544 25.0928C19.6807 25.0918 22.8705 23.7697 25.2223 21.4173C27.574 19.0648 28.8952 15.8746 28.8952 12.5483Z" fill="url(#paint1_linear_116_69)"/>
<path d="M67.7517 19.1792C68.9057 17.4902 69.5176 15.4896 69.506 13.444C69.5458 11.9706 69.244 10.508 68.6243 9.17061C68.0046 7.83325 67.0839 6.65742 65.9341 5.73516C63.6036 3.81724 60.1023 2.84341 55.5268 2.84341H44.1419C43.7579 2.83691 43.3768 2.91057 43.0229 3.05969C42.6689 3.20881 42.35 3.43011 42.0865 3.70945C41.8195 3.9818 41.6092 4.30431 41.4676 4.65837C41.326 5.01243 41.2558 5.39103 41.2613 5.77233V35.7083C41.2545 36.0879 41.3252 36.465 41.469 36.8165C41.6128 37.168 41.8267 37.4865 42.0976 37.7526C42.6499 38.2754 43.3814 38.5667 44.1419 38.5667C44.9024 38.5667 45.634 38.2754 46.1862 37.7526C46.4658 37.49 46.6873 37.1718 46.8365 36.8184C46.9856 36.465 47.0591 36.0843 47.0522 35.7008V25.0259H56.4969C58.5486 25.0259 60.0837 25.5128 61.0575 26.468C62.0204 27.375 62.6874 28.5512 62.9717 29.843C63.2662 31.2838 63.4119 32.751 63.4066 34.2215V35.7083C63.394 36.0903 63.4593 36.4709 63.5986 36.8268C63.7379 37.1828 63.9483 37.5066 64.2169 37.7786C64.497 38.0495 64.8292 38.2607 65.1934 38.3993C65.5576 38.538 65.9462 38.6012 66.3355 38.5851C66.7146 38.5896 67.0907 38.5183 67.4417 38.3753C67.7928 38.2323 68.1117 38.0206 68.3798 37.7525C68.6478 37.4845 68.8596 37.1655 69.0025 36.8145C69.1455 36.4634 69.2169 36.0873 69.2124 35.7083V33.4409C69.1916 31.0428 68.7383 28.6681 67.8743 26.4309C67.2499 24.6209 65.9482 23.1235 64.2429 22.2531C65.6538 21.542 66.8611 20.4843 67.7517 19.1792ZM61.5296 17.9154C60.0056 18.945 57.8907 19.4654 55.2369 19.4654H47.0597V8.4039H55.0101C58.2698 8.4039 60.5855 8.88709 61.8678 9.83862C63.1501 10.7901 63.7263 12.0465 63.7263 13.786C63.7576 14.607 63.5708 15.4217 63.1849 16.147C62.7991 16.8724 62.2279 17.4826 61.5296 17.9154Z" fill="white"/>
<path d="M98.8919 32.8091H81.1511L100.431 8.94657C100.717 8.61486 100.947 8.2381 101.111 7.8315C101.282 7.4254 101.373 6.9899 101.378 6.54916C101.397 5.58741 101.045 4.65544 100.393 3.94734C100.054 3.57977 99.6391 3.28986 99.1772 3.09741C98.7154 2.90496 98.2174 2.81452 97.7173 2.83226H76.5013C76.1304 2.82666 75.7625 2.89885 75.4213 3.04418C75.08 3.1895 74.7731 3.40474 74.5201 3.676C74.2624 3.93766 74.0591 4.24778 73.922 4.58846C73.7848 4.92913 73.7165 5.29361 73.721 5.66083C73.7195 6.02652 73.7904 6.38889 73.9296 6.72708C74.0687 7.06526 74.2734 7.37259 74.5318 7.63135C74.7902 7.89011 75.0973 8.09519 75.4353 8.2348C75.7733 8.3744 76.1356 8.44577 76.5013 8.44478H93.9001L74.3566 32.5638C73.8587 33.199 73.596 33.987 73.6132 34.7939C73.6132 35.7258 73.9832 36.6196 74.6418 37.2789C75.3004 37.9382 76.1938 38.3091 77.1257 38.3101H98.8807C99.2428 38.316 99.6026 38.2504 99.9393 38.1171C100.276 37.9838 100.583 37.7854 100.843 37.5333C101.108 37.2823 101.318 36.9787 101.459 36.6421C101.599 36.3054 101.668 35.943 101.661 35.5782C101.663 35.2122 101.593 34.8494 101.454 34.5107C101.316 34.1721 101.111 33.8644 100.852 33.6054C100.594 33.3465 100.286 33.1414 99.9479 33.0022C99.6094 32.8629 99.2467 32.7922 98.8807 32.7942L98.8919 32.8091Z" fill="white"/>
<path d="M131.448 3.46781C131.181 3.73935 130.971 4.06119 130.829 4.41467C130.688 4.76814 130.617 5.14622 130.623 5.52697V24.9812C130.673 26.6078 130.244 28.2132 129.389 29.5976C128.59 30.8314 127.459 31.8144 126.126 32.4336C124.743 33.0655 123.24 33.3925 121.719 33.3925C120.199 33.3925 118.696 33.0655 117.313 32.4336C115.98 31.8144 114.848 30.8314 114.049 29.5976C113.194 28.2134 112.764 26.6078 112.815 24.9812V5.52697C112.821 5.1416 112.748 4.75917 112.6 4.40315C112.452 4.04714 112.233 3.72505 111.957 3.45666C111.551 3.04694 111.033 2.76771 110.468 2.65478C109.902 2.54186 109.316 2.6004 108.785 2.8229C108.253 3.0454 107.8 3.4217 107.484 3.90351C107.167 4.38532 107.002 4.95066 107.01 5.52697V24.8363C107.01 27.8618 107.753 30.4674 109.184 32.5786C110.564 34.6319 112.488 36.2611 114.741 37.2842C116.93 38.2907 119.31 38.8118 121.719 38.8118C124.128 38.8118 126.509 38.2907 128.698 37.2842C130.956 36.2624 132.886 34.6333 134.273 32.5786C135.711 30.4674 136.444 27.8618 136.444 24.8363V5.52697C136.448 5.14172 136.375 4.75955 136.227 4.40366C136.079 4.04777 135.861 3.72558 135.585 3.45666C135.314 3.18307 134.992 2.96608 134.636 2.81834C134.281 2.67059 133.899 2.59504 133.514 2.59608C133.129 2.59712 132.748 2.67472 132.394 2.82438C132.039 2.97404 131.718 3.19276 131.448 3.46781Z" fill="white"/>
<path d="M179.549 2.59808H177.939C177.152 2.5954 176.386 2.84702 175.754 3.31545C175.129 3.76513 174.637 4.37336 174.326 5.07726L163.86 31.1773L153.382 5.05496C153.072 4.35857 152.582 3.75786 151.962 3.31545C151.331 2.84634 150.566 2.5946 149.78 2.59808H148.167C147.655 2.5915 147.148 2.69117 146.677 2.89079C146.206 3.09041 145.782 3.38563 145.431 3.75776C145.071 4.11798 144.787 4.54661 144.596 5.01837C144.404 5.49012 144.309 5.99545 144.316 6.50455V35.7082C144.309 36.0877 144.379 36.4647 144.522 36.8162C144.665 37.1677 144.878 37.4863 145.149 37.7525C145.701 38.2754 146.432 38.5667 147.193 38.5667C147.953 38.5667 148.685 38.2754 149.237 37.7525C149.517 37.49 149.738 37.1718 149.888 36.8184C150.037 36.465 150.11 36.0843 150.103 35.7008V11.4109L160.094 36.0985C160.397 36.8333 160.916 37.4592 161.581 37.8938C162.252 38.3303 163.035 38.5627 163.835 38.5627C164.636 38.5627 165.419 38.3303 166.09 37.8938C166.755 37.4562 167.274 36.8279 167.576 36.0911L177.56 11.4109V35.7082C177.553 36.0921 177.627 36.4732 177.777 36.8267C177.926 37.1802 178.149 37.4982 178.43 37.76C178.701 38.028 179.022 38.239 179.376 38.3808C179.73 38.5225 180.108 38.592 180.489 38.5851C180.868 38.5896 181.244 38.5183 181.595 38.3753C181.946 38.2323 182.265 38.0205 182.533 37.7525C182.801 37.4845 183.013 37.1655 183.156 36.8145C183.299 36.4634 183.37 36.0873 183.366 35.7082V6.50455C183.373 5.99539 183.278 5.48994 183.087 5.01813C182.895 4.54632 182.611 4.11773 182.251 3.75776C181.904 3.38943 181.485 3.0964 181.02 2.8969C180.555 2.69739 180.054 2.59567 179.549 2.59808Z" fill="white"/>
<path d="M214.015 32.8091H197.341V23.3161H212.254C212.616 23.3229 212.976 23.2577 213.313 23.1243C213.65 22.991 213.957 22.7921 214.216 22.5393C214.482 22.289 214.692 21.9856 214.833 21.6488C214.974 21.3119 215.042 20.9492 215.034 20.5842C215.036 20.2182 214.966 19.8554 214.827 19.5168C214.689 19.1782 214.484 18.8704 214.225 18.6115C213.967 18.3525 213.659 18.1475 213.321 18.0082C212.982 17.869 212.62 17.7983 212.254 17.8003H197.341V8.3556H214.015C214.378 8.36192 214.737 8.29654 215.074 8.16321C215.411 8.02989 215.718 7.83127 215.978 7.57877C216.244 7.32851 216.454 7.02509 216.595 6.68825C216.736 6.35141 216.804 5.98869 216.796 5.62368C216.798 5.25802 216.727 4.8956 216.588 4.5574C216.449 4.2192 216.244 3.91192 215.986 3.65336C215.727 3.39479 215.42 3.19008 215.082 3.05106C214.744 2.91203 214.381 2.84147 214.015 2.84344H194.412C194.028 2.83672 193.647 2.91065 193.293 3.06046C192.939 3.21027 192.62 3.43263 192.357 3.71319C192.09 3.98461 191.879 4.30642 191.738 4.65992C191.596 5.01343 191.526 5.39157 191.532 5.77235V35.4444C191.528 35.8236 191.601 36.1998 191.744 36.5508C191.888 36.9019 192.1 37.2208 192.368 37.489C192.636 37.7572 192.955 37.9692 193.306 38.1128C193.657 38.2563 194.033 38.3285 194.412 38.325H214.015C214.747 38.3361 215.452 38.0567 215.978 37.5482C216.243 37.2972 216.452 36.9936 216.593 36.657C216.734 36.3203 216.803 35.9579 216.796 35.5931C216.798 35.2271 216.728 34.8643 216.589 34.5256C216.45 34.187 216.246 33.8793 215.987 33.6203C215.728 33.3614 215.421 33.1563 215.083 33.0171C214.744 32.8778 214.381 32.8071 214.015 32.8091Z" fill="white"/>
</g>
<defs>
<linearGradient id="paint0_linear_116_69" x1="31.7386" y1="27.821" x2="17.7891" y2="23.6841" gradientUnits="userSpaceOnUse">
<stop offset="0.24" stop-color="#E27F26"/>
<stop offset="0.8" stop-color="#FDC24D"/>
</linearGradient>
<linearGradient id="paint1_linear_116_69" x1="30.3485" y1="27.0107" x2="-0.500004" y2="1.50001" gradientUnits="userSpaceOnUse">
<stop offset="0.17" stop-color="#E1E1E1"/>
<stop offset="0.503915" stop-color="white"/>
</linearGradient>
<clipPath id="clip0_116_69">
<rect width="216.796" height="41.41" fill="white"/>
</clipPath>
</defs>
</svg>
